<svg height="7326" width="720" xmlns="http://www.w3.org/2000/svg">
<rect height="7326" fill="#555" width="720"></rect>
<text fill="#7f7" font-family="Courier New" font-size="12" xml:space="preserve">
<tspan x="10" y="26">53 megabytes installed</tspan>
<tspan x="10" y="42"></tspan>
<tspan x="10" y="58">node_modules</tspan>
<tspan x="10" y="74">├─┬ next@2.1.1 </tspan>
<tspan x="10" y="90">│ ├── ansi-html@0.0.7 </tspan>
<tspan x="10" y="106">│ ├─┬ babel-core@6.24.0 </tspan>
<tspan x="10" y="122">│ │ ├─┬ babel-code-frame@6.22.0 </tspan>
<tspan x="10" y="138">│ │ │ ├── esutils@2.0.2 </tspan>
<tspan x="10" y="154">│ │ │ └── js-tokens@3.0.1 </tspan>
<tspan x="10" y="170">│ │ ├── babel-helpers@6.24.1 </tspan>
<tspan x="10" y="186">│ │ ├── babel-messages@6.23.0 </tspan>
<tspan x="10" y="202">│ │ ├─┬ babel-register@6.24.1 </tspan>
<tspan x="10" y="218">│ │ │ ├─┬ babel-core@6.24.1 </tspan>
<tspan x="10" y="234">│ │ │ │ └── babel-generator@6.24.1 </tspan>
<tspan x="10" y="250">│ │ │ └─┬ home-or-tmp@2.0.0 </tspan>
<tspan x="10" y="266">│ │ │   ├── os-homedir@1.0.2 </tspan>
<tspan x="10" y="282">│ │ │   └── os-tmpdir@1.0.2 </tspan>
<tspan x="10" y="298">│ │ ├── babel-template@6.24.1 </tspan>
<tspan x="10" y="314">│ │ ├─┬ babel-traverse@6.24.1 </tspan>
<tspan x="10" y="330">│ │ │ ├── globals@9.17.0 </tspan>
<tspan x="10" y="346">│ │ │ └─┬ invariant@2.2.2 </tspan>
<tspan x="10" y="362">│ │ │   └── loose-envify@1.3.1 </tspan>
<tspan x="10" y="378">│ │ ├─┬ babel-types@6.24.1 </tspan>
<tspan x="10" y="394">│ │ │ └── to-fast-properties@1.0.2 </tspan>
<tspan x="10" y="410">│ │ ├── babylon@6.17.0 </tspan>
<tspan x="10" y="426">│ │ ├── convert-source-map@1.5.0 </tspan>
<tspan x="10" y="442">│ │ ├─┬ debug@2.6.4 </tspan>
<tspan x="10" y="458">│ │ │ └── ms@0.7.3 </tspan>
<tspan x="10" y="474">│ │ ├── json5@0.5.1 </tspan>
<tspan x="10" y="490">│ │ ├── lodash@4.17.4 </tspan>
<tspan x="10" y="506">│ │ ├─┬ minimatch@3.0.3 </tspan>
<tspan x="10" y="522">│ │ │ └─┬ brace-expansion@1.1.7 </tspan>
<tspan x="10" y="538">│ │ │   ├── balanced-match@0.4.2 </tspan>
<tspan x="10" y="554">│ │ │   └── concat-map@0.0.1 </tspan>
<tspan x="10" y="570">│ │ ├── path-is-absolute@1.0.1 </tspan>
<tspan x="10" y="586">│ │ ├── private@0.1.7 </tspan>
<tspan x="10" y="602">│ │ ├── slash@1.0.0 </tspan>
<tspan x="10" y="618">│ │ └── source-map@0.5.6 </tspan>
<tspan x="10" y="634">│ ├─┬ babel-generator@6.24.0 </tspan>
<tspan x="10" y="650">│ │ ├─┬ detect-indent@4.0.0 </tspan>
<tspan x="10" y="666">│ │ │ └─┬ repeating@2.0.1 </tspan>
<tspan x="10" y="682">│ │ │   └─┬ is-finite@1.0.2 </tspan>
<tspan x="10" y="698">│ │ │     └── number-is-nan@1.0.1 </tspan>
<tspan x="10" y="714">│ │ ├── jsesc@1.3.0 </tspan>
<tspan x="10" y="730">│ │ └── trim-right@1.0.1 </tspan>
<tspan x="10" y="746">│ ├─┬ babel-loader@6.4.1 </tspan>
<tspan x="10" y="762">│ │ ├─┬ find-cache-dir@0.1.1 </tspan>
<tspan x="10" y="778">│ │ │ ├── commondir@1.0.1 </tspan>
<tspan x="10" y="794">│ │ │ └── pkg-dir@1.0.0 </tspan>
<tspan x="10" y="810">│ │ ├── loader-utils@0.2.17 </tspan>
<tspan x="10" y="826">│ │ ├─┬ mkdirp@0.5.1 </tspan>
<tspan x="10" y="842">│ │ │ └── minimist@0.0.8 </tspan>
<tspan x="10" y="858">│ │ └── object-assign@4.1.1 </tspan>
<tspan x="10" y="874">│ ├─┬ babel-plugin-module-resolver@2.6.2 </tspan>
<tspan x="10" y="890">│ │ ├─┬ find-babel-config@1.0.1 </tspan>
<tspan x="10" y="906">│ │ │ └── path-exists@3.0.0 </tspan>
<tspan x="10" y="922">│ │ └─┬ resolve@1.3.3 </tspan>
<tspan x="10" y="938">│ │   └── path-parse@1.0.5 </tspan>
<tspan x="10" y="954">│ ├── babel-plugin-react-require@3.0.0 </tspan>
<tspan x="10" y="970">│ ├─┬ babel-plugin-transform-class-properties@6.22.0 </tspan>
<tspan x="10" y="986">│ │ ├─┬ babel-helper-function-name@6.24.1 </tspan>
<tspan x="10" y="1002">│ │ │ └── babel-helper-get-function-arity@6.24.1 </tspan>
<tspan x="10" y="1018">│ │ └── babel-plugin-syntax-class-properties@6.13.0 </tspan>
<tspan x="10" y="1034">│ ├─┬ babel-plugin-transform-es2015-modules-commonjs@6.24.0 </tspan>
<tspan x="10" y="1050">│ │ └── babel-plugin-transform-strict-mode@6.24.1 </tspan>
<tspan x="10" y="1066">│ ├─┬ babel-plugin-transform-object-rest-spread@6.22.0 </tspan>
<tspan x="10" y="1082">│ │ └── babel-plugin-syntax-object-rest-spread@6.13.0 </tspan>
<tspan x="10" y="1098">│ ├─┬ babel-plugin-transform-react-jsx-source@6.22.0 </tspan>
<tspan x="10" y="1114">│ │ └── babel-plugin-syntax-jsx@6.18.0 </tspan>
<tspan x="10" y="1130">│ ├── babel-plugin-transform-react-remove-prop-types@0.3.3 </tspan>
<tspan x="10" y="1146">│ ├── babel-plugin-transform-runtime@6.22.0 </tspan>
<tspan x="10" y="1162">│ ├─┬ babel-preset-latest@6.24.0 </tspan>
<tspan x="10" y="1178">│ │ ├─┬ babel-preset-es2015@6.24.1 </tspan>
<tspan x="10" y="1194">│ │ │ ├── babel-plugin-check-es2015-constants@6.22.0 </tspan>
<tspan x="10" y="1210">│ │ │ ├── babel-plugin-transform-es2015-arrow-functions@6.22.0 </tspan>
<tspan x="10" y="1226">│ │ │ ├── babel-plugin-transform-es2015-block-scoped-functions@6.22.0 </tspan>
<tspan x="10" y="1242">│ │ │ ├── babel-plugin-transform-es2015-block-scoping@6.24.1 </tspan>
<tspan x="10" y="1258">│ │ │ ├─┬ babel-plugin-transform-es2015-classes@6.24.1 </tspan>
<tspan x="10" y="1274">│ │ │ │ ├── babel-helper-define-map@6.24.1 </tspan>
<tspan x="10" y="1290">│ │ │ │ ├── babel-helper-optimise-call-expression@6.24.1 </tspan>
<tspan x="10" y="1306">│ │ │ │ └── babel-helper-replace-supers@6.24.1 </tspan>
<tspan x="10" y="1322">│ │ │ ├── babel-plugin-transform-es2015-computed-properties@6.24.1 </tspan>
<tspan x="10" y="1338">│ │ │ ├── babel-plugin-transform-es2015-destructuring@6.23.0 </tspan>
<tspan x="10" y="1354">│ │ │ ├── babel-plugin-transform-es2015-duplicate-keys@6.24.1 </tspan>
<tspan x="10" y="1370">│ │ │ ├── babel-plugin-transform-es2015-for-of@6.23.0 </tspan>
<tspan x="10" y="1386">│ │ │ ├── babel-plugin-transform-es2015-function-name@6.24.1 </tspan>
<tspan x="10" y="1402">│ │ │ ├── babel-plugin-transform-es2015-literals@6.22.0 </tspan>
<tspan x="10" y="1418">│ │ │ ├─┬ babel-plugin-transform-es2015-modules-amd@6.24.1 </tspan>
<tspan x="10" y="1434">│ │ │ │ └── babel-plugin-transform-es2015-modules-commonjs@6.24.1 </tspan>
<tspan x="10" y="1450">│ │ │ ├── babel-plugin-transform-es2015-modules-commonjs@6.24.1 </tspan>
<tspan x="10" y="1466">│ │ │ ├─┬ babel-plugin-transform-es2015-modules-systemjs@6.24.1 </tspan>
<tspan x="10" y="1482">│ │ │ │ └── babel-helper-hoist-variables@6.24.1 </tspan>
<tspan x="10" y="1498">│ │ │ ├── babel-plugin-transform-es2015-modules-umd@6.24.1 </tspan>
<tspan x="10" y="1514">│ │ │ ├── babel-plugin-transform-es2015-object-super@6.24.1 </tspan>
<tspan x="10" y="1530">│ │ │ ├─┬ babel-plugin-transform-es2015-parameters@6.24.1 </tspan>
<tspan x="10" y="1546">│ │ │ │ └── babel-helper-call-delegate@6.24.1 </tspan>
<tspan x="10" y="1562">│ │ │ ├── babel-plugin-transform-es2015-shorthand-properties@6.24.1 </tspan>
<tspan x="10" y="1578">│ │ │ ├── babel-plugin-transform-es2015-spread@6.22.0 </tspan>
<tspan x="10" y="1594">│ │ │ ├─┬ babel-plugin-transform-es2015-sticky-regex@6.24.1 </tspan>
<tspan x="10" y="1610">│ │ │ │ └── babel-helper-regex@6.24.1 </tspan>
<tspan x="10" y="1626">│ │ │ ├── babel-plugin-transform-es2015-template-literals@6.22.0 </tspan>
<tspan x="10" y="1642">│ │ │ ├── babel-plugin-transform-es2015-typeof-symbol@6.23.0 </tspan>
<tspan x="10" y="1658">│ │ │ ├─┬ babel-plugin-transform-es2015-unicode-regex@6.24.1 </tspan>
<tspan x="10" y="1674">│ │ │ │ └─┬ regexpu-core@2.0.0 </tspan>
<tspan x="10" y="1690">│ │ │ │   ├── regenerate@1.3.2 </tspan>
<tspan x="10" y="1706">│ │ │ │   ├── regjsgen@0.2.0 </tspan>
<tspan x="10" y="1722">│ │ │ │   └─┬ regjsparser@0.1.5 </tspan>
<tspan x="10" y="1738">│ │ │ │     └── jsesc@0.5.0 </tspan>
<tspan x="10" y="1754">│ │ │ └─┬ babel-plugin-transform-regenerator@6.24.1 </tspan>
<tspan x="10" y="1770">│ │ │   └── regenerator-transform@0.9.11 </tspan>
<tspan x="10" y="1786">│ │ ├─┬ babel-preset-es2016@6.24.1 </tspan>
<tspan x="10" y="1802">│ │ │ └─┬ babel-plugin-transform-exponentiation-operator@6.24.1 </tspan>
<tspan x="10" y="1818">│ │ │   ├─┬ babel-helper-builder-binary-assignment-operator-visitor@6.24.1 </tspan>
<tspan x="10" y="1834">│ │ │   │ └── babel-helper-explode-assignable-expression@6.24.1 </tspan>
<tspan x="10" y="1850">│ │ │   └── babel-plugin-syntax-exponentiation-operator@6.13.0 </tspan>
<tspan x="10" y="1866">│ │ └─┬ babel-preset-es2017@6.24.1 </tspan>
<tspan x="10" y="1882">│ │   ├── babel-plugin-syntax-trailing-function-commas@6.22.0 </tspan>
<tspan x="10" y="1898">│ │   └─┬ babel-plugin-transform-async-to-generator@6.24.1 </tspan>
<tspan x="10" y="1914">│ │     ├── babel-helper-remap-async-to-generator@6.24.1 </tspan>
<tspan x="10" y="1930">│ │     └── babel-plugin-syntax-async-functions@6.13.0 </tspan>
<tspan x="10" y="1946">│ ├─┬ babel-preset-react@6.23.0 </tspan>
<tspan x="10" y="1962">│ │ ├── babel-plugin-transform-react-display-name@6.23.0 </tspan>
<tspan x="10" y="1978">│ │ ├─┬ babel-plugin-transform-react-jsx@6.24.1 </tspan>
<tspan x="10" y="1994">│ │ │ └── babel-helper-builder-react-jsx@6.24.1 </tspan>
<tspan x="10" y="2010">│ │ ├── babel-plugin-transform-react-jsx-self@6.22.0 </tspan>
<tspan x="10" y="2026">│ │ └─┬ babel-preset-flow@6.23.0 </tspan>
<tspan x="10" y="2042">│ │   └─┬ babel-plugin-transform-flow-strip-types@6.22.0 </tspan>
<tspan x="10" y="2058">│ │     └── babel-plugin-syntax-flow@6.18.0 </tspan>
<tspan x="10" y="2074">│ ├─┬ babel-runtime@6.23.0 </tspan>
<tspan x="10" y="2090">│ │ ├── core-js@2.4.1 </tspan>
<tspan x="10" y="2106">│ │ └── regenerator-runtime@0.10.3 </tspan>
<tspan x="10" y="2122">│ ├── case-sensitive-paths-webpack-plugin@2.0.0 </tspan>
<tspan x="10" y="2138">│ ├─┬ cross-spawn@5.1.0 </tspan>
<tspan x="10" y="2154">│ │ ├─┬ lru-cache@4.0.2 </tspan>
<tspan x="10" y="2170">│ │ │ ├── pseudomap@1.0.2 </tspan>
<tspan x="10" y="2186">│ │ │ └── yallist@2.1.2 </tspan>
<tspan x="10" y="2202">│ │ ├─┬ shebang-command@1.2.0 </tspan>
<tspan x="10" y="2218">│ │ │ └── shebang-regex@1.0.0 </tspan>
<tspan x="10" y="2234">│ │ └─┬ which@1.2.14 </tspan>
<tspan x="10" y="2250">│ │   └── isexe@2.0.0 </tspan>
<tspan x="10" y="2266">│ ├─┬ del@2.2.2 </tspan>
<tspan x="10" y="2282">│ │ ├─┬ globby@5.0.0 </tspan>
<tspan x="10" y="2298">│ │ │ ├─┬ array-union@1.0.2 </tspan>
<tspan x="10" y="2314">│ │ │ │ └── array-uniq@1.0.3 </tspan>
<tspan x="10" y="2330">│ │ │ └── arrify@1.0.1 </tspan>
<tspan x="10" y="2346">│ │ ├── is-path-cwd@1.0.0 </tspan>
<tspan x="10" y="2362">│ │ ├─┬ is-path-in-cwd@1.0.0 </tspan>
<tspan x="10" y="2378">│ │ │ └─┬ is-path-inside@1.0.0 </tspan>
<tspan x="10" y="2394">│ │ │   └── path-is-inside@1.0.2 </tspan>
<tspan x="10" y="2410">│ │ ├── pify@2.3.0 </tspan>
<tspan x="10" y="2426">│ │ ├─┬ pinkie-promise@2.0.1 </tspan>
<tspan x="10" y="2442">│ │ │ └── pinkie@2.0.4 </tspan>
<tspan x="10" y="2458">│ │ └── rimraf@2.6.1 </tspan>
<tspan x="10" y="2474">│ ├─┬ friendly-errors-webpack-plugin@1.5.0 </tspan>
<tspan x="10" y="2490">│ │ ├─┬ chalk@1.1.3 </tspan>
<tspan x="10" y="2506">│ │ │ ├── ansi-styles@2.2.1 </tspan>
<tspan x="10" y="2522">│ │ │ ├── has-ansi@2.0.0 </tspan>
<tspan x="10" y="2538">│ │ │ └── supports-color@2.0.0 </tspan>
<tspan x="10" y="2554">│ │ ├─┬ error-stack-parser@2.0.0 </tspan>
<tspan x="10" y="2570">│ │ │ └── stackframe@1.0.2 </tspan>
<tspan x="10" y="2586">│ │ └── string-length@1.0.1 </tspan>
<tspan x="10" y="2602">│ ├─┬ glob@7.1.1 </tspan>
<tspan x="10" y="2618">│ │ ├── fs.realpath@1.0.0 </tspan>
<tspan x="10" y="2634">│ │ ├─┬ inflight@1.0.6 </tspan>
<tspan x="10" y="2650">│ │ │ └── wrappy@1.0.2 </tspan>
<tspan x="10" y="2666">│ │ ├── inherits@2.0.3 </tspan>
<tspan x="10" y="2682">│ │ └── once@1.4.0 </tspan>
<tspan x="10" y="2698">│ ├── glob-promise@3.1.0 </tspan>
<tspan x="10" y="2714">│ ├── htmlescape@1.1.1 </tspan>
<tspan x="10" y="2730">│ ├── http-status@1.0.1 </tspan>
<tspan x="10" y="2746">│ ├── is-windows-bash@1.0.3 </tspan>
<tspan x="10" y="2762">│ ├── json-loader@0.5.4 </tspan>
<tspan x="10" y="2778">│ ├─┬ loader-utils@1.1.0 </tspan>
<tspan x="10" y="2794">│ │ ├── big.js@3.1.3 </tspan>
<tspan x="10" y="2810">│ │ └── emojis-list@2.1.0 </tspan>
<tspan x="10" y="2826">│ ├── md5-file@3.1.1 </tspan>
<tspan x="10" y="2842">│ ├── minimist@1.2.0 </tspan>
<tspan x="10" y="2858">│ ├── mitt@1.1.0 </tspan>
<tspan x="10" y="2874">│ ├─┬ mkdirp-then@1.2.0 </tspan>
<tspan x="10" y="2890">│ │ └── any-promise@1.3.0 </tspan>
<tspan x="10" y="2906">│ ├─┬ mv@2.1.1 </tspan>
<tspan x="10" y="2922">│ │ ├── ncp@2.0.0 </tspan>
<tspan x="10" y="2938">│ │ └─┬ rimraf@2.4.5 </tspan>
<tspan x="10" y="2954">│ │   └── glob@6.0.4 </tspan>
<tspan x="10" y="2970">│ ├─┬ mz@2.6.0 </tspan>
<tspan x="10" y="2986">│ │ └─┬ thenify-all@1.6.0 </tspan>
<tspan x="10" y="3002">│ │   └── thenify@3.2.1 </tspan>
<tspan x="10" y="3018">│ ├─┬ path-match@1.2.4 </tspan>
<tspan x="10" y="3034">│ │ ├─┬ http-errors@1.4.0 </tspan>
<tspan x="10" y="3050">│ │ │ └── inherits@2.0.1 </tspan>
<tspan x="10" y="3066">│ │ └─┬ path-to-regexp@1.7.0 </tspan>
<tspan x="10" y="3082">│ │   └── isarray@0.0.1 </tspan>
<tspan x="10" y="3098">│ ├─┬ pkg-up@1.0.0 </tspan>
<tspan x="10" y="3114">│ │ └─┬ find-up@1.1.2 </tspan>
<tspan x="10" y="3130">│ │   └── path-exists@2.1.0 </tspan>
<tspan x="10" y="3146">│ ├── UNMET PEER DEPENDENCY react@^15.0</tspan>
<tspan x="10" y="3162">│ ├─┬ react-hot-loader@3.0.0-beta.6 </tspan>
<tspan x="10" y="3178">│ │ ├─┬ global@4.3.2 </tspan>
<tspan x="10" y="3194">│ │ │ ├─┬ min-document@2.19.0 </tspan>
<tspan x="10" y="3210">│ │ │ │ └── dom-walk@0.1.1 </tspan>
<tspan x="10" y="3226">│ │ │ └── process@0.5.2 </tspan>
<tspan x="10" y="3242">│ │ ├── UNMET PEER DEPENDENCY react@^0.14.0 || ^15.0.0</tspan>
<tspan x="10" y="3258">│ │ ├── react-deep-force-update@2.0.1 </tspan>
<tspan x="10" y="3274">│ │ ├── UNMET PEER DEPENDENCY react-dom@^0.14.0 || ^15.0.0</tspan>
<tspan x="10" y="3290">│ │ ├── react-proxy@3.0.0-alpha.1 </tspan>
<tspan x="10" y="3306">│ │ ├─┬ redbox-react@1.3.6 </tspan>
<tspan x="10" y="3322">│ │ │ ├─┬ error-stack-parser@1.3.6 </tspan>
<tspan x="10" y="3338">│ │ │ │ └── stackframe@0.3.1 </tspan>
<tspan x="10" y="3354">│ │ │ └─┬ prop-types@15.5.8 </tspan>
<tspan x="10" y="3370">│ │ │   └─┬ fbjs@0.8.12 </tspan>
<tspan x="10" y="3386">│ │ │     ├── core-js@1.2.7 </tspan>
<tspan x="10" y="3402">│ │ │     ├─┬ isomorphic-fetch@2.2.1 </tspan>
<tspan x="10" y="3418">│ │ │     │ ├─┬ node-fetch@1.6.3 </tspan>
<tspan x="10" y="3434">│ │ │     │ │ ├─┬ encoding@0.1.12 </tspan>
<tspan x="10" y="3450">│ │ │     │ │ │ └── iconv-lite@0.4.15 </tspan>
<tspan x="10" y="3466">│ │ │     │ │ └── is-stream@1.1.0 </tspan>
<tspan x="10" y="3482">│ │ │     │ └── whatwg-fetch@2.0.3 </tspan>
<tspan x="10" y="3498">│ │ │     ├─┬ promise@7.1.1 </tspan>
<tspan x="10" y="3514">│ │ │     │ └── asap@2.0.5 </tspan>
<tspan x="10" y="3530">│ │ │     └── ua-parser-js@0.7.12 </tspan>
<tspan x="10" y="3546">│ │ └─┬ source-map@0.4.4 </tspan>
<tspan x="10" y="3562">│ │   └── amdefine@1.0.1 </tspan>
<tspan x="10" y="3578">│ ├─┬ send@0.15.1 </tspan>
<tspan x="10" y="3594">│ │ ├── debug@2.6.1 </tspan>
<tspan x="10" y="3610">│ │ ├── depd@1.1.0 </tspan>
<tspan x="10" y="3626">│ │ ├── destroy@1.0.4 </tspan>
<tspan x="10" y="3642">│ │ ├── encodeurl@1.0.1 </tspan>
<tspan x="10" y="3658">│ │ ├── escape-html@1.0.3 </tspan>
<tspan x="10" y="3674">│ │ ├── etag@1.8.0 </tspan>
<tspan x="10" y="3690">│ │ ├── fresh@0.5.0 </tspan>
<tspan x="10" y="3706">│ │ ├─┬ http-errors@1.6.1 </tspan>
<tspan x="10" y="3722">│ │ │ └── setprototypeof@1.0.3 </tspan>
<tspan x="10" y="3738">│ │ ├── mime@1.3.4 </tspan>
<tspan x="10" y="3754">│ │ ├── ms@0.7.2 </tspan>
<tspan x="10" y="3770">│ │ ├─┬ on-finished@2.3.0 </tspan>
<tspan x="10" y="3786">│ │ │ └── ee-first@1.1.1 </tspan>
<tspan x="10" y="3802">│ │ ├── range-parser@1.2.0 </tspan>
<tspan x="10" y="3818">│ │ └── statuses@1.3.1 </tspan>
<tspan x="10" y="3834">│ ├── source-map-support@0.4.14 </tspan>
<tspan x="10" y="3850">│ ├─┬ strip-ansi@3.0.1 </tspan>
<tspan x="10" y="3866">│ │ └── ansi-regex@2.1.1 </tspan>
<tspan x="10" y="3882">│ ├─┬ styled-jsx@0.5.7 </tspan>
<tspan x="10" y="3898">│ │ ├── babel-traverse@6.21.0 </tspan>
<tspan x="10" y="3914">│ │ ├── babylon@6.14.1 </tspan>
<tspan x="10" y="3930">│ │ ├── convert-source-map@1.3.0 </tspan>
<tspan x="10" y="3946">│ │ ├── escape-string-regexp@1.0.5 </tspan>
<tspan x="10" y="3962">│ │ ├─┬ object.entries@1.0.4 </tspan>
<tspan x="10" y="3978">│ │ │ ├─┬ define-properties@1.1.2 </tspan>
<tspan x="10" y="3994">│ │ │ │ ├── foreach@2.0.5 </tspan>
<tspan x="10" y="4010">│ │ │ │ └── object-keys@1.0.11 </tspan>
<tspan x="10" y="4026">│ │ │ ├─┬ es-abstract@1.7.0 </tspan>
<tspan x="10" y="4042">│ │ │ │ ├─┬ es-to-primitive@1.1.1 </tspan>
<tspan x="10" y="4058">│ │ │ │ │ ├── is-date-object@1.0.1 </tspan>
<tspan x="10" y="4074">│ │ │ │ │ └── is-symbol@1.0.1 </tspan>
<tspan x="10" y="4090">│ │ │ │ ├── is-callable@1.1.3 </tspan>
<tspan x="10" y="4106">│ │ │ │ └── is-regex@1.0.4 </tspan>
<tspan x="10" y="4122">│ │ │ ├── function-bind@1.1.0 </tspan>
<tspan x="10" y="4138">│ │ │ └── has@1.0.1 </tspan>
<tspan x="10" y="4154">│ │ └── string-hash@1.1.1 </tspan>
<tspan x="10" y="4170">│ ├─┬ touch@1.0.0 </tspan>
<tspan x="10" y="4186">│ │ └─┬ nopt@1.0.10 </tspan>
<tspan x="10" y="4202">│ │   └── abbrev@1.1.0 </tspan>
<tspan x="10" y="4218">│ ├── unfetch@2.1.2 </tspan>
<tspan x="10" y="4234">│ ├─┬ url@0.11.0 </tspan>
<tspan x="10" y="4250">│ │ ├── punycode@1.3.2 </tspan>
<tspan x="10" y="4266">│ │ └── querystring@0.2.0 </tspan>
<tspan x="10" y="4282">│ ├── uuid@3.0.1 </tspan>
<tspan x="10" y="4298">│ ├─┬ webpack@2.3.3 </tspan>
<tspan x="10" y="4314">│ │ ├── acorn@4.0.11 </tspan>
<tspan x="10" y="4330">│ │ ├── acorn-dynamic-import@2.0.2 </tspan>
<tspan x="10" y="4346">│ │ ├─┬ ajv@4.11.7 </tspan>
<tspan x="10" y="4362">│ │ │ ├── co@4.6.0 </tspan>
<tspan x="10" y="4378">│ │ │ └─┬ json-stable-stringify@1.0.1 </tspan>
<tspan x="10" y="4394">│ │ │   └── jsonify@0.0.0 </tspan>
<tspan x="10" y="4410">│ │ ├── ajv-keywords@1.5.1 </tspan>
<tspan x="10" y="4426">│ │ ├── async@2.3.0 </tspan>
<tspan x="10" y="4442">│ │ ├─┬ enhanced-resolve@3.1.0 </tspan>
<tspan x="10" y="4458">│ │ │ └── graceful-fs@4.1.11 </tspan>
<tspan x="10" y="4474">│ │ ├── interpret@1.0.3 </tspan>
<tspan x="10" y="4490">│ │ ├── loader-runner@2.3.0 </tspan>
<tspan x="10" y="4506">│ │ ├── loader-utils@0.2.17 </tspan>
<tspan x="10" y="4522">│ │ ├─┬ memory-fs@0.4.1 </tspan>
<tspan x="10" y="4538">│ │ │ ├─┬ errno@0.1.4 </tspan>
<tspan x="10" y="4554">│ │ │ │ └── prr@0.0.0 </tspan>
<tspan x="10" y="4570">│ │ │ └─┬ readable-stream@2.2.9 </tspan>
<tspan x="10" y="4586">│ │ │   ├── buffer-shims@1.0.0 </tspan>
<tspan x="10" y="4602">│ │ │   ├── core-util-is@1.0.2 </tspan>
<tspan x="10" y="4618">│ │ │   ├── isarray@1.0.0 </tspan>
<tspan x="10" y="4634">│ │ │   ├── process-nextick-args@1.0.7 </tspan>
<tspan x="10" y="4650">│ │ │   ├── string_decoder@1.0.0 </tspan>
<tspan x="10" y="4666">│ │ │   └── util-deprecate@1.0.2 </tspan>
<tspan x="10" y="4682">│ │ ├─┬ node-libs-browser@2.0.0 </tspan>
<tspan x="10" y="4698">│ │ │ ├── assert@1.4.1 </tspan>
<tspan x="10" y="4714">│ │ │ ├─┬ browserify-zlib@0.1.4 </tspan>
<tspan x="10" y="4730">│ │ │ │ └── pako@0.2.9 </tspan>
<tspan x="10" y="4746">│ │ │ ├─┬ buffer@4.9.1 </tspan>
<tspan x="10" y="4762">│ │ │ │ ├── base64-js@1.2.0 </tspan>
<tspan x="10" y="4778">│ │ │ │ ├── ieee754@1.1.8 </tspan>
<tspan x="10" y="4794">│ │ │ │ └── isarray@1.0.0 </tspan>
<tspan x="10" y="4810">│ │ │ ├─┬ console-browserify@1.1.0 </tspan>
<tspan x="10" y="4826">│ │ │ │ └── date-now@0.1.4 </tspan>
<tspan x="10" y="4842">│ │ │ ├── constants-browserify@1.0.0 </tspan>
<tspan x="10" y="4858">│ │ │ ├─┬ crypto-browserify@3.11.0 </tspan>
<tspan x="10" y="4874">│ │ │ │ ├─┬ browserify-cipher@1.0.0 </tspan>
<tspan x="10" y="4890">│ │ │ │ │ ├─┬ browserify-aes@1.0.6 </tspan>
<tspan x="10" y="4906">│ │ │ │ │ │ └── buffer-xor@1.0.3 </tspan>
<tspan x="10" y="4922">│ │ │ │ │ ├─┬ browserify-des@1.0.0 </tspan>
<tspan x="10" y="4938">│ │ │ │ │ │ └── des.js@1.0.0 </tspan>
<tspan x="10" y="4954">│ │ │ │ │ └── evp_bytestokey@1.0.0 </tspan>
<tspan x="10" y="4970">│ │ │ │ ├─┬ browserify-sign@4.0.4 </tspan>
<tspan x="10" y="4986">│ │ │ │ │ ├── bn.js@4.11.6 </tspan>
<tspan x="10" y="5002">│ │ │ │ │ ├── browserify-rsa@4.0.1 </tspan>
<tspan x="10" y="5018">│ │ │ │ │ ├─┬ elliptic@6.4.0 </tspan>
<tspan x="10" y="5034">│ │ │ │ │ │ ├── brorand@1.1.0 </tspan>
<tspan x="10" y="5050">│ │ │ │ │ │ ├── hash.js@1.0.3 </tspan>
<tspan x="10" y="5066">│ │ │ │ │ │ ├── hmac-drbg@1.0.1 </tspan>
<tspan x="10" y="5082">│ │ │ │ │ │ ├── minimalistic-assert@1.0.0 </tspan>
<tspan x="10" y="5098">│ │ │ │ │ │ └── minimalistic-crypto-utils@1.0.1 </tspan>
<tspan x="10" y="5114">│ │ │ │ │ └─┬ parse-asn1@5.1.0 </tspan>
<tspan x="10" y="5130">│ │ │ │ │   └── asn1.js@4.9.1 </tspan>
<tspan x="10" y="5146">│ │ │ │ ├── create-ecdh@4.0.0 </tspan>
<tspan x="10" y="5162">│ │ │ │ ├─┬ create-hash@1.1.2 </tspan>
<tspan x="10" y="5178">│ │ │ │ │ ├── cipher-base@1.0.3 </tspan>
<tspan x="10" y="5194">│ │ │ │ │ ├── ripemd160@1.0.1 </tspan>
<tspan x="10" y="5210">│ │ │ │ │ └── sha.js@2.4.8 </tspan>
<tspan x="10" y="5226">│ │ │ │ ├── create-hmac@1.1.4 </tspan>
<tspan x="10" y="5242">│ │ │ │ ├─┬ diffie-hellman@5.0.2 </tspan>
<tspan x="10" y="5258">│ │ │ │ │ └── miller-rabin@4.0.0 </tspan>
<tspan x="10" y="5274">│ │ │ │ ├── pbkdf2@3.0.9 </tspan>
<tspan x="10" y="5290">│ │ │ │ ├── public-encrypt@4.0.0 </tspan>
<tspan x="10" y="5306">│ │ │ │ └── randombytes@2.0.3 </tspan>
<tspan x="10" y="5322">│ │ │ ├── domain-browser@1.1.7 </tspan>
<tspan x="10" y="5338">│ │ │ ├── events@1.1.1 </tspan>
<tspan x="10" y="5354">│ │ │ ├── https-browserify@0.0.1 </tspan>
<tspan x="10" y="5370">│ │ │ ├── os-browserify@0.2.1 </tspan>
<tspan x="10" y="5386">│ │ │ ├── path-browserify@0.0.0 </tspan>
<tspan x="10" y="5402">│ │ │ ├── process@0.11.9 </tspan>
<tspan x="10" y="5418">│ │ │ ├── querystring-es3@0.2.1 </tspan>
<tspan x="10" y="5434">│ │ │ ├── stream-browserify@2.0.1 </tspan>
<tspan x="10" y="5450">│ │ │ ├─┬ stream-http@2.7.0 </tspan>
<tspan x="10" y="5466">│ │ │ │ ├── builtin-status-codes@3.0.0 </tspan>
<tspan x="10" y="5482">│ │ │ │ ├── to-arraybuffer@1.0.1 </tspan>
<tspan x="10" y="5498">│ │ │ │ └── xtend@4.0.1 </tspan>
<tspan x="10" y="5514">│ │ │ ├── string_decoder@0.10.31 </tspan>
<tspan x="10" y="5530">│ │ │ ├─┬ timers-browserify@2.0.2 </tspan>
<tspan x="10" y="5546">│ │ │ │ └── setimmediate@1.0.5 </tspan>
<tspan x="10" y="5562">│ │ │ ├── tty-browserify@0.0.0 </tspan>
<tspan x="10" y="5578">│ │ │ ├─┬ util@0.10.3 </tspan>
<tspan x="10" y="5594">│ │ │ │ └── inherits@2.0.1 </tspan>
<tspan x="10" y="5610">│ │ │ └─┬ vm-browserify@0.0.4 </tspan>
<tspan x="10" y="5626">│ │ │   └── indexof@0.0.1 </tspan>
<tspan x="10" y="5642">│ │ ├─┬ supports-color@3.2.3 </tspan>
<tspan x="10" y="5658">│ │ │ └── has-flag@1.0.0 </tspan>
<tspan x="10" y="5674">│ │ ├── tapable@0.2.6 </tspan>
<tspan x="10" y="5690">│ │ ├─┬ uglify-js@2.8.22 </tspan>
<tspan x="10" y="5706">│ │ │ ├── uglify-to-browserify@1.0.2 </tspan>
<tspan x="10" y="5722">│ │ │ └─┬ yargs@3.10.0 </tspan>
<tspan x="10" y="5738">│ │ │   ├── camelcase@1.2.1 </tspan>
<tspan x="10" y="5754">│ │ │   ├─┬ cliui@2.1.0 </tspan>
<tspan x="10" y="5770">│ │ │   │ ├─┬ center-align@0.1.3 </tspan>
<tspan x="10" y="5786">│ │ │   │ │ ├─┬ align-text@0.1.4 </tspan>
<tspan x="10" y="5802">│ │ │   │ │ │ ├── longest@1.0.1 </tspan>
<tspan x="10" y="5818">│ │ │   │ │ │ └── repeat-string@1.6.1 </tspan>
<tspan x="10" y="5834">│ │ │   │ │ └── lazy-cache@1.0.4 </tspan>
<tspan x="10" y="5850">│ │ │   │ ├── right-align@0.1.3 </tspan>
<tspan x="10" y="5866">│ │ │   │ └── wordwrap@0.0.2 </tspan>
<tspan x="10" y="5882">│ │ │   └── window-size@0.1.0 </tspan>
<tspan x="10" y="5898">│ │ ├─┬ watchpack@1.3.1 </tspan>
<tspan x="10" y="5914">│ │ │ └─┬ chokidar@1.6.1 </tspan>
<tspan x="10" y="5930">│ │ │   ├─┬ anymatch@1.3.0 </tspan>
<tspan x="10" y="5946">│ │ │   │ └─┬ micromatch@2.3.11 </tspan>
<tspan x="10" y="5962">│ │ │   │   ├─┬ arr-diff@2.0.0 </tspan>
<tspan x="10" y="5978">│ │ │   │   │ └── arr-flatten@1.0.3 </tspan>
<tspan x="10" y="5994">│ │ │   │   ├── array-unique@0.2.1 </tspan>
<tspan x="10" y="6010">│ │ │   │   ├─┬ braces@1.8.5 </tspan>
<tspan x="10" y="6026">│ │ │   │   │ ├─┬ expand-range@1.8.2 </tspan>
<tspan x="10" y="6042">│ │ │   │   │ │ └─┬ fill-range@2.2.3 </tspan>
<tspan x="10" y="6058">│ │ │   │   │ │   ├── is-number@2.1.0 </tspan>
<tspan x="10" y="6074">│ │ │   │   │ │   ├─┬ isobject@2.1.0 </tspan>
<tspan x="10" y="6090">│ │ │   │   │ │   │ └── isarray@1.0.0 </tspan>
<tspan x="10" y="6106">│ │ │   │   │ │   └── randomatic@1.1.6 </tspan>
<tspan x="10" y="6122">│ │ │   │   │ ├── preserve@0.2.0 </tspan>
<tspan x="10" y="6138">│ │ │   │   │ └── repeat-element@1.1.2 </tspan>
<tspan x="10" y="6154">│ │ │   │   ├─┬ expand-brackets@0.1.5 </tspan>
<tspan x="10" y="6170">│ │ │   │   │ └── is-posix-bracket@0.1.1 </tspan>
<tspan x="10" y="6186">│ │ │   │   ├── extglob@0.3.2 </tspan>
<tspan x="10" y="6202">│ │ │   │   ├── filename-regex@2.0.0 </tspan>
<tspan x="10" y="6218">│ │ │   │   ├─┬ kind-of@3.1.0 </tspan>
<tspan x="10" y="6234">│ │ │   │   │ └── is-buffer@1.1.5 </tspan>
<tspan x="10" y="6250">│ │ │   │   ├─┬ normalize-path@2.1.1 </tspan>
<tspan x="10" y="6266">│ │ │   │   │ └── remove-trailing-separator@1.0.1 </tspan>
<tspan x="10" y="6282">│ │ │   │   ├─┬ object.omit@2.0.1 </tspan>
<tspan x="10" y="6298">│ │ │   │   │ ├─┬ for-own@0.1.5 </tspan>
<tspan x="10" y="6314">│ │ │   │   │ │ └── for-in@1.0.2 </tspan>
<tspan x="10" y="6330">│ │ │   │   │ └── is-extendable@0.1.1 </tspan>
<tspan x="10" y="6346">│ │ │   │   ├─┬ parse-glob@3.0.4 </tspan>
<tspan x="10" y="6362">│ │ │   │   │ ├── glob-base@0.3.0 </tspan>
<tspan x="10" y="6378">│ │ │   │   │ └── is-dotfile@1.0.2 </tspan>
<tspan x="10" y="6394">│ │ │   │   └─┬ regex-cache@0.4.3 </tspan>
<tspan x="10" y="6410">│ │ │   │     ├── is-equal-shallow@0.1.3 </tspan>
<tspan x="10" y="6426">│ │ │   │     └── is-primitive@2.0.0 </tspan>
<tspan x="10" y="6442">│ │ │   ├── async-each@1.0.1 </tspan>
<tspan x="10" y="6458">│ │ │   ├── glob-parent@2.0.0 </tspan>
<tspan x="10" y="6474">│ │ │   ├─┬ is-binary-path@1.0.1 </tspan>
<tspan x="10" y="6490">│ │ │   │ └── binary-extensions@1.8.0 </tspan>
<tspan x="10" y="6506">│ │ │   ├─┬ is-glob@2.0.1 </tspan>
<tspan x="10" y="6522">│ │ │   │ └── is-extglob@1.0.0 </tspan>
<tspan x="10" y="6538">│ │ │   └─┬ readdirp@2.1.0 </tspan>
<tspan x="10" y="6554">│ │ │     └── set-immediate-shim@1.0.1 </tspan>
<tspan x="10" y="6570">│ │ ├─┬ webpack-sources@0.2.3 </tspan>
<tspan x="10" y="6586">│ │ │ └── source-list-map@1.1.1 </tspan>
<tspan x="10" y="6602">│ │ └─┬ yargs@6.6.0 </tspan>
<tspan x="10" y="6618">│ │   ├── camelcase@3.0.0 </tspan>
<tspan x="10" y="6634">│ │   ├─┬ cliui@3.2.0 </tspan>
<tspan x="10" y="6650">│ │   │ └── wrap-ansi@2.1.0 </tspan>
<tspan x="10" y="6666">│ │   ├── decamelize@1.2.0 </tspan>
<tspan x="10" y="6682">│ │   ├── get-caller-file@1.0.2 </tspan>
<tspan x="10" y="6698">│ │   ├─┬ os-locale@1.4.0 </tspan>
<tspan x="10" y="6714">│ │   │ └─┬ lcid@1.0.0 </tspan>
<tspan x="10" y="6730">│ │   │   └── invert-kv@1.0.0 </tspan>
<tspan x="10" y="6746">│ │   ├─┬ read-pkg-up@1.0.1 </tspan>
<tspan x="10" y="6762">│ │   │ └─┬ read-pkg@1.1.0 </tspan>
<tspan x="10" y="6778">│ │   │   ├─┬ load-json-file@1.1.0 </tspan>
<tspan x="10" y="6794">│ │   │   │ ├─┬ parse-json@2.2.0 </tspan>
<tspan x="10" y="6810">│ │   │   │ │ └─┬ error-ex@1.3.1 </tspan>
<tspan x="10" y="6826">│ │   │   │ │   └── is-arrayish@0.2.1 </tspan>
<tspan x="10" y="6842">│ │   │   │ └─┬ strip-bom@2.0.0 </tspan>
<tspan x="10" y="6858">│ │   │   │   └── is-utf8@0.2.1 </tspan>
<tspan x="10" y="6874">│ │   │   ├─┬ normalize-package-data@2.3.8 </tspan>
<tspan x="10" y="6890">│ │   │   │ ├── hosted-git-info@2.4.2 </tspan>
<tspan x="10" y="6906">│ │   │   │ ├─┬ is-builtin-module@1.0.0 </tspan>
<tspan x="10" y="6922">│ │   │   │ │ └── builtin-modules@1.1.1 </tspan>
<tspan x="10" y="6938">│ │   │   │ ├── semver@5.3.0 </tspan>
<tspan x="10" y="6954">│ │   │   │ └─┬ validate-npm-package-license@3.0.1 </tspan>
<tspan x="10" y="6970">│ │   │   │   ├─┬ spdx-correct@1.0.2 </tspan>
<tspan x="10" y="6986">│ │   │   │   │ └── spdx-license-ids@1.2.2 </tspan>
<tspan x="10" y="7002">│ │   │   │   └── spdx-expression-parse@1.0.4 </tspan>
<tspan x="10" y="7018">│ │   │   └── path-type@1.1.0 </tspan>
<tspan x="10" y="7034">│ │   ├── require-directory@2.1.1 </tspan>
<tspan x="10" y="7050">│ │   ├── require-main-filename@1.0.1 </tspan>
<tspan x="10" y="7066">│ │   ├── set-blocking@2.0.0 </tspan>
<tspan x="10" y="7082">│ │   ├─┬ string-width@1.0.2 </tspan>
<tspan x="10" y="7098">│ │   │ ├── code-point-at@1.1.0 </tspan>
<tspan x="10" y="7114">│ │   │ └── is-fullwidth-code-point@1.0.0 </tspan>
<tspan x="10" y="7130">│ │   ├── which-module@1.0.0 </tspan>
<tspan x="10" y="7146">│ │   ├── y18n@3.2.1 </tspan>
<tspan x="10" y="7162">│ │   └─┬ yargs-parser@4.2.1 </tspan>
<tspan x="10" y="7178">│ │     └── camelcase@3.0.0 </tspan>
<tspan x="10" y="7194">│ ├── webpack-dev-middleware@1.10.1 </tspan>
<tspan x="10" y="7210">│ ├─┬ webpack-hot-middleware@2.18.0 </tspan>
<tspan x="10" y="7226">│ │ └── html-entities@1.2.0 </tspan>
<tspan x="10" y="7242">│ └─┬ write-file-webpack-plugin@4.0.0 </tspan>
<tspan x="10" y="7258">│   ├── filesize@3.5.6 </tspan>
<tspan x="10" y="7274">│   └── moment@2.18.1 </tspan>
<tspan x="10" y="7290">├── UNMET PEER DEPENDENCY react@^15.4.2</tspan>
<tspan x="10" y="7306">└── UNMET PEER DEPENDENCY react-dom@^15.4.2</tspan>
</text>
</svg>
